<?xml version="1.0" encoding="utf-8"?>
<svg viewBox="0 0 80 80" xmlns="http://www.w3.org/2000/svg">
  <path style="stroke: rgb(0, 0, 0);" d="M 3.681 38.488 C 4.401 14.359 23.362 3.276 39.866 3.299 C 63.627 3.332 74.225 22.549 74.692 37.674 C 74.963 46.455 71.073 53.128 70.442 55.586 C 69.621 58.32 77.992 71.941 75.235 74.492 C 72.663 76.873 56.38 69.238 56.419 70.059 C 49.339 73.488 44.773 74.466 39.141 74.401 L 39.503 60.199 C 41.144 60.322 44.622 59.475 44.66 55.676 C 44.701 51.525 41.413 50.508 39.775 50.52 L 39.865 47.896 L 44.027 47.806 L 44.569 43.193 C 48.715 40.736 53.571 37.145 53.615 29.352 C 53.647 23.647 49.336 16.309 39.504 16.235 C 33.872 16.192 24.906 19.752 24.668 32.155 C 24.465 32.317 32.626 32.457 33.533 32.156 C 33.225 33.805 33.035 25.388 39.412 25.462 C 41.381 25.196 44.845 26.535 44.569 29.532 C 44.986 32.336 41.252 34.945 38.689 36.859 C 34.938 40.027 36.012 46.966 35.884 47.806 L 39.323 47.896 L 39.232 50.519 C 38.08 50.372 34.526 51.518 34.347 55.404 C 34.179 59.063 37.953 60.246 39.142 60.198 L 38.418 74.4 C 26.924 73.471 3.767 63.66 3.681 38.488 Z"/>
</svg>