<?xml version="1.0" encoding="utf-8"?>
<svg viewBox="0 0 80 80" width="80" height="80" xmlns="http://www.w3.org/2000/svg">
  <path d="M 812.664 416.446 L 827.336 416.446 L 832.07 433.526 A 50.925 50.925 0 0 1 842.555 437.342 L 857.16 427.301 L 868.4 436.732 L 861.047 452.859 A 50.925 50.925 0 0 1 866.627 462.523 L 884.269 464.219 L 886.817 478.667 L 870.818 486.295 A 50.925 50.925 0 0 1 868.881 497.284 L 881.305 509.924 L 873.97 522.63 L 856.811 518.19 A 50.925 50.925 0 0 1 848.263 525.362 L 849.656 543.031 L 835.869 548.049 L 825.579 533.618 A 50.925 50.925 0 0 1 814.421 533.618 L 804.131 548.049 L 790.344 543.031 L 791.737 525.362 A 50.925 50.925 0 0 1 783.189 518.19 L 766.03 522.63 L 758.695 509.924 L 771.119 497.284 A 50.925 50.925 0 0 1 769.182 486.295 L 753.183 478.667 L 755.731 464.219 L 773.373 462.523 A 50.925 50.925 0 0 1 778.953 452.859 L 771.6 436.732 L 782.84 427.301 L 797.445 437.342 A 50.925 50.925 0 0 1 807.93 433.526 Z M 820 452.757 A 30.243 30.243 0 0 0 820 513.243 A 30.243 30.243 0 0 0 820 452.757" transform="matrix(0.586854, 0, 0, 0.586854, -441.092407, -243.241104)"/>
</svg>