<?xml version="1.0" encoding="utf-8"?>
<svg viewBox="0 0 80 80" xmlns="http://www.w3.org/2000/svg">
  <path style="stroke: rgb(0, 0, 0); stroke-width: 5px; fill: none;" d="M 2.841 40.524 C 2.71 48.854 9.222 58.11 20.572 58.164 C 28.963 58.204 32.504 53.873 34.321 52.013 L 45.539 52.104 C 46.65 53.424 50.412 58.441 59.018 58.164 C 72.728 57.723 76.943 46.131 77.019 40.524 C 77.141 31.519 70.511 22.568 59.47 22.071 L 20.661 22.071 C 10.344 22.662 2.997 30.597 2.841 40.524 Z"/>
  <ellipse style="stroke: rgb(0, 0, 0); paint-order: fill; stroke-width: 0px;" cx="58.972" cy="34.101" rx="3.03" ry="2.985"/>
  <ellipse style="stroke: rgb(0, 0, 0); stroke-width: 0px;" cx="52.776" cy="40.207" rx="2.985" ry="2.94"/>
  <ellipse style="stroke: rgb(0, 0, 0); stroke-width: 0px;" cx="58.927" cy="46.359" rx="2.985" ry="3.03"/>
  <ellipse style="stroke: rgb(0, 0, 0); stroke-width: 0px;" cx="65.033" cy="40.298" rx="3.121" ry="3.03"/>
  <rect style="stroke: rgb(0, 0, 0); stroke-width: 0px;" x="11.797" y="37.267" width="18.092" height="5.88" rx="1" ry="1"/>
  <rect style="stroke: rgb(0, 0, 0); stroke-width: 0px;" x="11.888" y="37.223" width="18.092" height="5.88" rx="1" ry="1" transform="matrix(0, 1, -1, 0, 61.097, 19.229002)"/>
</svg>